 http://img130.imageshack.us/img130/9647/mirrors2008.jpg

Country.......: USA, Romania, Germany
Genre.........: Horror, Thriller
Date release..: 14.08.2008 [World]
Director......: Alexandre Aja
Writers.......: Alexandre Aja, Gregory Levasseur
Duration......: 107 min.
More..........: http://www.imdb.com/title/tt0790686
Trailer.......: http://www.imdb.com/video/imdb/vi1518141721
Trailer.......:

Pilot :
An ex-cop and his family are the target of an evil force that is using mirrors as a gateway into their home. 

Cats :
Kiefer Sutherland   	 ...  	Ben Carson
Paula Patton 	... 	Amy Carson
Cameron Boyce 	... 	Michael Carson
Erica Gluck 	... 	Daisy Carson
Amy Smart 	... 	Angela Carson
Mary Beth Peil 	... 	Anna Esseker
John Shrapnel 	... 	Lorenzo Sapelli
Jason Flemyng 	... 	Det. Larry Byrne
Tim Ahern 	... 	Dr. Morris
Julian Glover 	... 	Robert Esseker
Josh Cole 	... 	Gary Lewis
Ezra Buzzington 	... 	Terrence Berry
Aida Doina 	... 	Rosa (as Doina Aida Stan)
Ioana Abur 	... 	Front Desk Sister
Darren Kent 	... 	Jimmy Esseker 

Data Technical :
!!! SAMPLE !!!
Audio.....: Lector Polish
Subtitles.: None
Format                           : AVI
Format/Info                      : Audio Video Interleave
File size                        : 696 MiB
Duration                         : 1h 46mn
Overall bit rate                 : 911 Kbps
Writing application              : VirtualDubMod 1.5.10.2 (build 2542/release)
Writing library                  : VirtualDubMod build 2542/release
Video
ID                               : 0
Format                           : MPEG-4 Visual
Format profile                   : Advanced Simple@L5
Format settings, BVOP            : Yes
Format settings, QPel            : No
Format settings, GMC             : No warppoints
Format settings, Matrix          : Default (H.263)
Muxing mode                      : Packed bitstream
Codec ID                         : XVID
Codec ID/Hint                    : XviD
Duration                         : 1h 46mn
Bit rate                         : 771 Kbps
Width                            : 640 pixels
Height                           : 272 pixels
Display aspect ratio             : 2.35:1
Frame rate                       : 25.000 fps
Color space                      : YUV
Chroma subsampling               : 4:2:0
Bit depth                        : 8 bits
Scan type                        : Progressive
Bits/(Pixel*Frame)               : 0.177
Stream size                      : 589 MiB (85%)
Writing library                  : XviD 1.2.0.dev47 (UTC 2006-11-01)
Audio
ID                               : 1
Format                           : MPEG Audio
Format version                   : Version 1
Format profile                   : Layer 3
Mode                             : Joint stereo
Mode extension                   : MS Stereo
Codec ID                         : 55
Codec ID/Hint                    : MP3
Duration                         : 1h 46mn
Bit rate mode                    : Variable
Bit rate                         : 128 Kbps
Channel(s)                       : 2 channels
Sampling rate                    : 48.0 KHz
Stream size                      : 97.4 MiB (14%)
Alignment                        : Aligned on interleaves
Interleave, duration             : 24 ms (0.60 video frame)
Interleave, preload duration     : 144 ms
Writing library                  : LAME3.90.
Encoding settings                : -m j -V 4 -q 2 -lowpass 17.6 --abr 128

Screen : 
http://img861.imageshack.us/img861/4240/mirrors2008s5.jpg 
http://img35.imageshack.us/img35/4637/mirrors2008s1.jpg 
http://img688.imageshack.us/img688/7092/mirrors2008s2.jpg 
http://img130.imageshack.us/img130/5941/mirrors2008s4.jpg 
http://img24.imageshack.us/img24/2782/mirrors2008s3.jpg